<?xml version="1.0" standalone="no"?>
<!DOCTYPE svg PUBLIC "-//W3C//DTD SVG 20010904//EN"
 "http://www.w3.org/TR/2001/REC-SVG-20010904/DTD/svg10.dtd">
<svg version="1.0" xmlns="http://www.w3.org/2000/svg"
 width="128.000000pt" height="128.000000pt" viewBox="0 0 128.000000 128.000000"
 preserveAspectRatio="xMidYMid meet">
<metadata>
Created by potrace 1.16, written by Peter Selinger 2001-2019
</metadata>
<g transform="translate(0.000000,128.000000) scale(0.100000,-0.100000)"
fill="#000000" stroke="none">
<path d="M1080 1089 c-56 -105 -100 -192 -98 -194 17 -15 152 -65 159 -58 12
12 139 370 139 393 0 24 -37 50 -71 50 -25 0 -36 -16 -129 -191z"/>
<path d="M26 1069 c-37 -29 -37 -89 0 -118 15 -12 37 -21 49 -21 12 0 34 9 49
21 37 29 37 89 0 118 -15 12 -37 21 -49 21 -12 0 -34 -9 -49 -21z"/>
<path d="M795 841 c-28 -16 -71 -69 -63 -76 20 -16 464 -205 474 -201 19 7 19
98 0 134 -22 43 -44 57 -167 111 -131 57 -191 65 -244 32z"/>
<path d="M202 820 c-70 -43 -78 -136 -17 -197 29 -29 40 -33 84 -33 44 0 56 5
87 33 114 104 -22 277 -154 197z"/>
<path d="M666 660 c-65 -99 -235 -178 -421 -196 -82 -8 -95 -16 -95 -57 0 -24
15 -44 78 -106 131 -130 295 -223 477 -271 108 -29 219 -37 241 -19 57 47 249
437 230 467 -9 15 -86 36 -95 26 -4 -5 -25 -53 -46 -108 -21 -54 -62 -139 -91
-190 l-53 -91 -43 1 c-24 0 -56 3 -71 7 l-28 8 25 32 c30 40 79 137 73 144 -3
2 -31 -17 -63 -43 -63 -51 -126 -83 -162 -84 -18 0 -94 31 -110 45 -2 2 13 27
32 55 39 56 47 83 19 58 -28 -24 -100 -58 -124 -58 -21 0 -109 63 -109 78 0 4
35 15 77 25 109 24 231 87 298 153 48 47 92 111 83 119 -5 5 -87 45 -91 45 -3
0 -16 -18 -31 -40z"/>
</g>
</svg>
